{"glyphs":{"0":{"ha":913,"x_min":64,"x_max":850,"o":"m 64 500 q 109 763 64 648 q 242 943 154 878 q 457 1008 330 1008 q 669 943 581 1008 q 804 762 758 878 q 850 500 850 647 q 803 239 850 354 q 668 58 757 123 q 457 -8 579 -8 q 246 58 335 -8 q 110 241 157 125 q 64 500 64 357 m 248 500 q 303 262 248 355 q 457 168 358 168 q 613 264 560 168 q 667 500 667 359 q 612 738 667 644 q 457 832 557 832 q 299 740 351 832 q 248 500 248 648 z "},"1":{"ha":530,"x_min":18,"x_max":415,"o":"m 18 682 l 18 831 l 260 1000 l 415 1000 l 415 0 l 232 0 l 232 823 l 18 682 z "},"2":{"ha":743,"x_min":40,"x_max":697,"o":"m 40 -1 l 41 150 l 359 437 q 478 563 443 511 q 513 676 513 614 q 463 791 513 747 q 336 835 414 835 q 180 778 266 835 q 90 701 132 745 q 43 647 49 657 l 41 863 q 96 915 73 895 q 165 960 119 935 q 351 1008 256 1008 q 528 967 448 1008 q 652 854 607 926 q 697 693 697 782 q 539 385 697 522 l 322 182 l 694 182 l 694 -1 l 40 -1 z "},"3":{"ha":730,"x_min":41,"x_max":688,"o":"m 41 822 l 41 839 l 41 1000 l 147 1000 l 343 1000 l 660 1000 l 660 822 l 397 614 q 421 615 406 615 q 560 574 499 615 q 654 467 621 533 q 688 329 688 400 q 645 157 688 233 q 521 36 602 81 q 334 -8 440 -8 q 154 18 218 -8 q 43 78 90 45 l 43 286 q 158 201 89 233 q 315 165 239 165 q 455 213 404 165 q 505 332 505 260 q 457 443 505 401 q 332 485 408 485 q 126 412 230 485 l 126 590 l 428 822 l 334 822 l 153 822 l 41 822 z "},"4":{"ha":833,"x_min":40,"x_max":787,"o":"m 40 248 l 40 421 l 461 1000 l 650 1000 l 650 421 l 787 421 l 787 248 l 650 248 l 650 0 l 467 0 l 467 248 l 40 248 m 235 421 l 467 421 l 467 734 l 235 421 z "},"5":{"ha":730,"x_min":-3,"x_max":690,"o":"m 35 83 l 35 282 q 74 250 39 274 q 153 207 109 227 q 313 167 231 167 q 453 215 400 167 q 507 342 505 262 q 454 461 507 412 q 314 510 400 510 q 172 483 243 510 q 46 416 100 456 l 46 1000 l 625 1000 l 625 822 l 207 822 l 208 633 q 279 660 237 649 q 368 671 321 671 q 530 626 456 671 q 647 503 604 581 q 690 330 690 425 q 642 154 690 232 q 510 34 593 77 q 323 -8 427 -8 q 184 12 247 -8 q 59 67 121 32 q 35 83 -3 102 z "},"6":{"ha":823,"x_min":72,"x_max":790,"o":"m 72 465 q 105 704 72 596 q 203 885 138 811 q 505 1008 315 1008 q 621 990 562 1008 q 724 947 679 972 l 724 762 q 625 814 681 793 q 513 836 568 836 q 327 765 396 836 q 256 559 258 693 q 289 593 260 569 q 367 639 318 618 q 482 660 416 660 q 644 619 574 660 q 752 504 714 578 q 790 336 790 431 q 748 160 790 239 q 628 37 707 82 q 444 -8 550 -8 q 255 47 340 -8 q 121 209 171 102 q 72 465 72 317 m 281 334 q 329 220 281 267 q 444 174 376 174 q 559 220 512 174 q 607 334 607 267 q 560 447 607 400 q 444 493 513 493 q 329 446 376 493 q 281 334 281 399 z "},"7":{"ha":703,"x_min":18,"x_max":686,"o":"m 18 822 l 18 1000 l 686 1000 l 686 822 l 283 0 l 81 0 l 484 822 l 18 822 z "},"8":{"ha":809,"x_min":57,"x_max":753,"o":"m 57 304 q 204 559 57 469 q 107 750 107 644 q 147 884 107 825 q 255 976 187 943 q 404 1008 323 1008 q 554 976 485 1008 q 663 884 623 943 q 703 750 703 825 q 606 559 703 644 q 753 304 753 469 q 706 145 753 217 q 580 33 660 74 q 404 -8 500 -8 q 233 31 313 -8 q 105 142 153 71 q 57 304 57 214 m 240 314 q 287 209 240 250 q 404 167 334 167 q 521 206 472 167 q 570 314 570 245 q 524 421 570 382 q 404 460 478 460 q 288 421 336 460 q 240 314 240 382 m 279 736 q 315 659 279 692 q 404 627 351 627 q 494 658 457 627 q 530 736 530 689 q 494 815 530 785 q 404 846 457 846 q 315 814 351 846 q 279 736 279 783 z "},"9":{"ha":823,"x_min":33,"x_max":753,"o":"m 33 664 q 75 840 33 761 q 195 963 117 918 q 379 1008 273 1008 q 568 954 484 1008 q 703 792 653 899 q 753 534 753 685 q 720 297 753 404 q 621 115 686 191 q 318 -8 508 -8 q 203 10 261 -8 q 100 53 144 28 l 100 239 q 201 185 144 207 q 314 164 258 164 q 499 236 431 164 q 568 440 567 309 q 535 406 564 431 q 456 361 505 382 q 342 340 407 340 q 181 382 252 340 q 72 497 111 424 q 33 664 33 571 m 216 667 q 264 554 216 600 q 379 507 311 507 q 496 554 448 507 q 543 667 543 600 q 495 780 543 733 q 379 827 447 827 q 264 780 311 827 q 216 667 216 733 z "},"-":{"ha":507,"x_min":46,"x_max":415,"o":"m 46 0 l 46 926 l 415 926 l 415 0 l 46 0 m 92 46 l 369 46 l 369 880 l 92 880 l 92 46 z "}," ":{"ha":407,"x_min":0,"x_max":0,"o":""},",":{"ha":378,"x_min":64,"x_max":314,"o":"m 64 114 q 99 197 64 163 q 180 231 135 231 q 278 190 243 231 q 314 89 314 149 q 249 -91 314 -22 q 79 -160 184 -160 l 79 -90 q 153 -60 119 -87 q 193 0 187 -32 q 161 -3 182 -4 q 92 31 120 -3 q 64 114 64 65 z "},".":{"ha":383,"x_min":64,"x_max":319,"o":"m 64 119 q 101 211 64 174 q 192 248 138 248 q 284 211 249 248 q 319 119 319 174 q 282 28 319 64 q 192 -8 244 -8 q 101 29 139 -8 q 64 119 64 66 z "},"A":{"ha":1005,"x_min":14,"x_max":991,"o":"m 14 0 l 403 1000 l 603 1000 l 991 0 l 793 0 l 694 256 l 311 256 l 212 0 l 14 0 m 378 425 l 628 425 l 503 747 l 378 425 z "},"B":{"ha":888,"x_min":110,"x_max":842,"o":"m 110 0 l 110 1000 l 571 1000 q 700 969 643 1000 q 788 886 757 939 q 819 770 819 833 q 751 607 819 670 q 574 545 684 545 l 293 545 l 293 458 l 587 458 q 771 398 701 458 q 842 233 842 338 q 808 115 842 168 q 718 31 775 61 q 587 0 660 0 l 110 0 m 293 174 l 596 174 q 640 189 621 174 q 659 232 659 204 q 640 274 659 260 q 596 289 621 289 l 293 289 l 293 174 m 293 714 l 576 714 q 620 728 602 714 q 637 770 637 742 q 620 812 637 798 q 576 827 602 827 l 293 827 l 293 714 z "},"C":{"ha":949,"x_min":54,"x_max":901,"o":"m 54 500 q 124 754 54 637 q 311 940 193 871 q 567 1008 429 1008 q 753 974 665 1008 q 901 889 840 939 l 901 669 q 770 774 848 730 q 576 825 673 825 q 402 782 479 825 q 281 664 325 739 q 237 500 237 589 q 286 337 237 412 q 413 219 334 262 q 582 175 492 175 q 771 227 680 175 q 901 330 849 269 l 901 125 q 763 31 848 69 q 575 -8 677 -8 q 314 60 433 -8 q 124 245 195 127 q 54 500 54 363 z "},"D":{"ha":1053,"x_min":110,"x_max":999,"o":"m 110 0 l 110 1000 l 498 1000 q 748 934 633 1000 q 931 753 863 868 q 999 500 999 637 q 931 247 999 361 q 749 66 864 132 q 498 0 633 0 l 110 0 m 293 183 l 498 183 q 657 225 585 183 q 773 341 730 268 q 815 500 815 414 q 773 659 815 586 q 657 774 730 732 q 498 817 585 817 l 293 817 l 293 183 z "},"E":{"ha":873,"x_min":110,"x_max":807,"o":"m 110 0 l 110 1000 l 807 1000 l 807 818 l 804 818 l 804 817 l 293 817 l 293 591 l 754 591 l 754 408 l 293 408 l 293 183 l 807 183 l 807 0 l 110 0 z "},"F":{"ha":836,"x_min":110,"x_max":790,"o":"m 110 0 l 110 1000 l 790 1000 l 790 817 l 293 817 l 293 591 l 741 591 l 741 408 l 293 408 l 293 0 l 110 0 z "},"G":{"ha":1078,"x_min":54,"x_max":1015,"o":"m 54 500 q 126 762 54 646 q 314 943 197 878 q 562 1008 431 1008 q 746 984 659 1008 q 889 932 832 960 q 958 893 946 904 l 958 676 q 796 778 879 740 q 583 825 692 825 q 419 786 500 825 q 288 672 339 746 q 237 500 237 599 q 280 331 237 406 q 396 216 323 257 q 555 175 469 175 q 721 218 659 175 q 809 310 783 261 q 835 379 835 359 l 478 379 l 478 549 l 1015 549 l 1015 0 l 838 0 l 838 131 q 541 -8 738 -8 q 292 59 403 -8 q 117 243 180 126 q 54 500 54 359 z "},"H":{"ha":1054,"x_min":110,"x_max":945,"o":"m 110 0 l 110 1000 l 293 1000 l 293 591 l 761 591 l 761 1000 l 945 1000 l 945 0 l 761 0 l 761 408 l 293 408 l 293 0 l 110 0 z "},"I":{"ha":402,"x_min":110,"x_max":293,"o":"m 110 0 l 110 1000 l 293 1000 l 293 0 l 110 0 z "},"J":{"ha":768,"x_min":32,"x_max":672,"o":"m 32 307 l 32 396 l 214 396 l 214 307 q 253 203 215 242 q 351 164 292 164 q 450 203 411 164 q 489 313 489 243 l 489 1000 l 672 1000 l 672 313 q 628 152 672 227 q 510 35 585 78 q 350 -8 436 -8 q 194 33 268 -8 q 76 146 121 74 q 32 307 32 218 z "},"K":{"ha":878,"x_min":110,"x_max":869,"o":"m 110 0 l 110 1000 l 293 1000 l 293 726 q 860 1000 425 793 l 860 799 q 293 529 425 591 l 293 465 l 869 196 l 869 -8 l 293 269 l 293 0 l 110 0 z "},"L":{"ha":749,"x_min":110,"x_max":724,"o":"m 110 0 l 110 1000 l 293 1000 l 293 183 l 724 183 l 724 0 l 110 0 z "},"M":{"ha":1376,"x_min":110,"x_max":1267,"o":"m 110 0 l 110 1000 l 582 1000 l 624 184 l 750 184 l 791 1000 l 1267 1000 l 1267 0 l 1083 0 l 1083 817 l 962 817 l 913 0 l 461 0 l 415 817 l 293 817 l 293 0 l 110 0 z "},"N":{"ha":1059,"x_min":110,"x_max":950,"o":"m 110 0 l 110 1000 l 579 1000 l 642 183 l 766 183 l 766 1000 l 950 1000 l 950 0 l 478 0 l 416 817 l 293 817 l 293 0 l 110 0 z "},"O":{"ha":1126,"x_min":54,"x_max":1071,"o":"m 54 500 q 123 754 54 637 q 309 940 192 871 q 562 1008 425 1008 q 817 940 700 1008 q 1002 754 933 871 q 1071 500 1071 637 q 1002 245 1071 362 q 817 60 933 129 q 562 -8 700 -8 q 309 60 425 -8 q 123 246 192 129 q 54 500 54 363 m 237 500 q 281 337 237 412 q 400 219 325 262 q 562 175 475 175 q 726 219 652 175 q 844 337 800 262 q 888 500 888 411 q 844 663 888 589 q 726 781 800 737 q 562 825 652 825 q 399 781 473 825 q 281 663 325 737 q 237 500 237 589 z "},"P":{"ha":863,"x_min":110,"x_max":833,"o":"m 110 0 l 110 1000 l 513 1000 q 676 954 603 1000 q 792 833 750 907 q 833 677 833 760 q 792 523 833 596 q 676 402 750 449 q 514 355 603 355 l 293 355 l 293 0 l 110 0 m 293 539 l 511 539 q 610 582 571 539 q 648 677 648 624 q 610 774 648 732 q 511 817 571 817 l 293 817 l 293 539 z "},"Q":{"ha":1126,"x_min":54,"x_max":1072,"o":"m 54 500 q 123 754 54 637 q 310 940 192 871 q 566 1008 428 1008 q 820 940 703 1008 q 1004 754 936 871 q 1072 500 1072 637 q 1016 267 1072 375 q 862 87 960 158 q 643 -3 764 16 l 643 -64 l 1017 -64 l 1017 -215 l 489 -215 l 489 -3 q 269 87 368 16 q 112 267 170 158 q 54 500 54 375 m 237 500 q 270 359 237 425 q 360 247 302 293 q 489 184 418 201 l 489 542 l 643 542 l 643 184 q 820 298 750 211 q 889 500 889 386 q 845 663 889 589 q 727 781 802 737 q 566 825 653 825 q 401 781 477 825 q 282 663 326 737 q 237 500 237 589 z "},"R":{"ha":861,"x_min":110,"x_max":831,"o":"m 110 0 l 110 1000 l 566 1000 q 699 963 637 1000 q 795 863 760 925 q 831 729 831 800 q 795 594 831 657 q 699 492 760 530 q 564 454 637 454 l 293 454 l 293 366 l 786 183 l 785 -9 l 293 172 l 293 0 l 110 0 m 293 637 l 546 637 q 620 661 592 637 q 647 730 647 685 q 618 791 647 765 q 546 817 590 817 l 293 817 l 293 637 z "},"S":{"ha":779,"x_min":57,"x_max":739,"o":"m 57 725 q 150 933 57 857 q 395 1008 243 1008 q 551 978 477 1008 q 677 903 625 947 l 677 679 q 553 785 623 743 q 396 833 472 833 q 283 802 321 833 q 245 724 245 771 q 346 618 245 643 l 453 591 q 668 481 597 555 q 739 290 739 407 q 694 135 739 203 q 571 29 650 66 q 396 -8 493 -8 q 214 31 300 -8 q 69 125 127 69 l 69 347 q 211 229 130 279 q 395 168 308 168 q 508 203 467 168 q 550 288 550 239 q 518 368 550 334 q 427 415 486 401 l 317 443 q 126 546 196 472 q 57 725 57 621 z "},"T":{"ha":815,"x_min":16,"x_max":800,"o":"m 16 817 l 16 1000 l 800 1000 l 800 817 l 498 817 l 498 0 l 315 0 l 315 817 l 16 817 z "},"U":{"ha":973,"x_min":96,"x_max":879,"o":"m 96 383 l 96 1000 l 279 1000 l 279 383 q 307 278 279 326 q 383 203 335 231 q 488 175 431 175 q 592 203 545 175 q 668 278 640 231 q 696 383 696 326 l 696 1000 l 879 1000 l 879 383 q 826 186 879 276 q 683 44 774 97 q 488 -8 593 -8 q 291 44 380 -8 q 149 187 201 97 q 96 383 96 277 z "},"V":{"ha":919,"x_min":14,"x_max":905,"o":"m 14 1000 l 210 1000 l 461 268 l 711 1000 l 905 1000 l 551 0 l 368 0 l 14 1000 z "},"W":{"ha":1376,"x_min":110,"x_max":1267,"o":"m 110 0 l 110 1000 l 293 1000 l 293 183 l 415 183 l 463 1000 l 913 1000 l 962 183 l 1083 183 l 1083 1000 l 1267 1000 l 1267 0 l 793 0 l 750 817 l 625 817 l 585 0 l 110 0 z "},"X":{"ha":912,"x_min":16,"x_max":897,"o":"m 16 0 l 349 500 l 127 833 l 16 1000 l 233 1000 l 318 872 l 340 840 l 457 664 l 572 839 l 679 1000 l 897 1000 l 566 500 l 897 0 l 679 0 l 572 161 l 457 336 l 233 0 l 16 0 z "},"Y":{"ha":936,"x_min":9,"x_max":926,"o":"m 9 1000 l 228 1000 l 300 876 l 322 839 l 321 839 l 467 587 l 710 1000 l 926 1000 l 817 818 l 559 382 l 559 0 l 376 0 l 376 382 l 118 822 l 9 1000 z "},"Z":{"ha":900,"x_min":54,"x_max":846,"o":"m 54 0 l 54 183 l 615 817 l 60 817 l 60 1000 l 844 1000 l 844 817 l 283 183 l 846 183 l 846 0 l 54 0 z "},"a":{"ha":852,"x_min":57,"x_max":758,"o":"m 57 358 q 97 542 57 458 q 207 676 138 627 q 359 725 277 725 l 361 725 q 478 699 423 725 q 575 624 533 672 l 575 717 l 758 717 l 758 568 l 758 395 l 758 149 l 758 146 l 758 0 l 575 0 l 575 93 q 479 18 534 44 q 361 -8 424 -8 l 359 -8 q 207 41 276 -8 q 97 174 138 90 q 57 358 57 258 m 240 358 q 288 228 240 280 q 408 175 336 175 l 410 175 q 492 199 454 175 q 553 266 530 224 q 575 358 575 309 q 553 451 575 408 q 492 517 530 493 q 410 542 454 542 l 408 542 q 288 489 336 542 q 240 358 240 436 z "},"b":{"ha":848,"x_min":90,"x_max":791,"o":"m 90 0 l 90 1000 l 273 1000 l 273 624 q 370 698 315 671 q 486 725 425 725 l 488 725 q 641 676 571 725 q 751 543 710 627 q 791 358 791 458 q 751 174 791 258 q 641 41 710 90 q 488 -8 571 -8 l 486 -8 q 370 19 425 -8 q 273 93 315 46 l 273 0 l 90 0 m 273 358 q 321 228 273 281 q 439 175 368 175 l 440 175 q 561 229 513 176 q 608 358 608 282 q 560 488 608 435 q 440 542 511 542 l 439 542 q 321 488 368 542 q 273 358 273 435 z "},"c":{"ha":719,"x_min":57,"x_max":672,"o":"m 57 358 q 104 542 57 458 q 234 676 151 627 q 418 725 317 725 q 555 705 488 725 q 669 656 623 685 l 669 452 q 566 517 628 492 q 440 543 506 543 q 295 492 350 543 q 240 358 240 441 q 296 225 240 275 q 441 175 353 175 q 578 203 507 175 q 672 245 631 221 l 672 58 q 564 11 631 31 q 415 -8 497 -8 q 232 41 313 -8 q 103 174 150 90 q 57 358 57 258 z "},"d":{"ha":848,"x_min":57,"x_max":758,"o":"m 57 358 q 98 542 57 458 q 209 676 139 627 q 363 725 279 725 q 478 698 424 725 q 575 624 533 671 l 575 1000 l 758 1000 l 758 0 l 575 0 l 575 93 q 479 19 534 45 q 363 -8 424 -8 q 209 41 279 -8 q 98 174 139 90 q 57 358 57 258 m 240 358 q 290 228 240 281 q 410 175 339 175 q 528 229 481 175 q 575 358 575 282 q 528 488 575 435 q 410 542 481 542 q 290 488 339 542 q 240 358 240 435 z "},"e":{"ha":793,"x_min":57,"x_max":745,"o":"m 57 358 q 104 542 57 458 q 233 676 151 627 q 411 725 314 725 q 579 676 503 725 q 700 543 656 627 q 745 358 745 458 q 741 298 745 328 l 248 298 q 315 194 261 232 q 464 157 368 157 q 596 181 533 157 q 704 240 660 205 l 704 69 q 592 15 661 37 q 440 -8 524 -8 q 243 41 332 -8 q 106 174 155 90 q 57 358 57 258 m 248 428 l 566 428 q 513 526 553 489 q 411 562 473 562 q 303 526 345 562 q 248 428 262 490 z "},"f":{"ha":473,"x_min":29,"x_max":473,"o":"m 29 557 l 29 717 l 132 717 l 132 1000 l 328 1000 l 473 1000 l 473 838 l 428 838 l 315 838 l 315 717 l 473 717 l 473 557 l 315 557 l 315 0 l 132 0 l 132 557 l 29 557 z "},"g":{"ha":852,"x_min":57,"x_max":758,"o":"m 57 358 q 98 542 57 458 q 209 676 139 627 q 363 725 279 725 q 478 698 424 725 q 575 624 533 671 l 575 717 l 758 717 l 758 -292 l 90 -292 l 90 -129 l 575 -129 l 575 93 q 479 19 534 45 q 363 -8 424 -8 q 209 41 279 -8 q 98 174 139 90 q 57 358 57 258 m 240 358 q 290 228 240 281 q 410 175 339 175 q 528 229 481 175 q 575 358 575 282 q 528 488 575 435 q 410 542 481 542 q 290 488 339 542 q 240 358 240 435 z "},"h":{"ha":812,"x_min":90,"x_max":729,"o":"m 90 0 l 90 1000 l 273 1000 l 273 273 q 469 591 313 334 l 546 717 l 682 717 l 729 717 l 729 0 l 546 0 l 546 453 q 479 343 526 422 q 382 180 432 264 q 273 0 296 33 l 90 0 z "},"i":{"ha":398,"x_min":77,"x_max":321,"o":"m 77 921 q 113 1006 77 971 q 199 1042 149 1042 q 285 1006 249 1042 q 321 921 321 971 q 285 833 321 869 q 199 798 249 798 q 113 833 149 798 q 77 921 77 869 m 106 0 l 106 717 l 289 717 l 289 0 l 106 0 z "},"j":{"ha":390,"x_min":-77,"x_max":313,"o":"m -77 -131 l 98 -131 l 98 717 l 282 717 l 282 -292 l -77 -292 l -77 -131 m 66 921 q 102 1006 66 971 q 189 1042 138 1042 q 277 1006 241 1042 q 313 921 313 971 q 276 833 313 869 q 189 798 240 798 q 102 833 138 798 q 66 921 66 869 z "},"k":{"ha":748,"x_min":90,"x_max":714,"o":"m 90 0 l 90 1000 l 273 1000 l 273 550 l 714 717 l 714 525 l 319 375 l 714 192 l 714 -8 l 273 201 l 273 0 l 90 0 z "},"l":{"ha":362,"x_min":90,"x_max":273,"o":"m 90 0 l 90 1000 l 273 1000 l 273 0 l 90 0 z "},"m":{"ha":1263,"x_min":96,"x_max":1181,"o":"m 96 0 l 96 717 l 279 717 l 279 269 l 542 717 l 729 717 q 730 556 730 678 q 730 272 730 433 l 993 717 l 1181 717 l 1181 0 l 997 0 l 997 454 l 730 0 l 547 0 l 547 453 q 415 232 506 385 q 279 0 325 79 l 96 0 z "},"n":{"ha":818,"x_min":96,"x_max":734,"o":"m 96 0 l 96 717 l 279 717 l 279 268 q 546 717 289 281 l 734 717 l 734 0 l 551 0 l 551 441 l 279 0 l 96 0 z "},"o":{"ha":823,"x_min":57,"x_max":768,"o":"m 57 358 q 105 542 57 458 q 234 676 153 627 q 412 725 315 725 l 414 725 q 592 676 511 725 q 721 542 673 627 q 768 358 768 457 q 721 175 768 260 q 592 41 673 90 q 414 -8 511 -8 l 412 -8 q 234 41 315 -8 q 105 174 153 90 q 57 358 57 258 m 240 358 q 290 228 240 281 q 412 175 340 175 l 414 175 q 535 229 486 175 q 585 358 585 282 q 562 449 585 407 q 499 517 539 492 q 414 542 460 542 l 412 542 q 290 488 340 542 q 240 358 240 435 z "},"p":{"ha":852,"x_min":94,"x_max":796,"o":"m 94 -294 l 94 717 l 278 717 l 278 624 q 374 698 319 671 q 490 725 429 725 q 644 676 574 725 q 755 543 714 627 q 796 358 796 458 q 755 174 796 258 q 644 41 714 90 q 490 -8 574 -8 q 374 19 429 -8 q 278 93 319 46 l 278 -294 l 94 -294 m 278 358 q 325 228 278 281 q 443 175 372 175 q 563 229 514 175 q 611 358 611 282 q 563 488 611 435 q 443 542 514 542 q 325 488 372 542 q 278 358 278 435 z "},"q":{"ha":852,"x_min":57,"x_max":758,"o":"m 57 358 q 98 542 57 458 q 209 676 139 627 q 363 725 279 725 q 478 698 424 725 q 575 624 533 671 l 575 717 l 758 717 l 758 -294 l 575 -294 l 575 93 q 479 19 534 45 q 363 -8 424 -8 q 209 41 279 -8 q 98 174 139 90 q 57 358 57 258 m 241 358 q 290 228 241 281 q 410 175 339 175 q 528 229 481 175 q 575 358 575 282 q 528 488 575 435 q 410 542 481 542 q 290 488 339 542 q 241 358 241 435 z "},"r":{"ha":600,"x_min":96,"x_max":582,"o":"m 96 0 l 96 717 l 279 717 l 279 543 l 582 725 l 582 517 l 279 338 l 279 0 l 96 0 z "},"s":{"ha":642,"x_min":52,"x_max":610,"o":"m 52 497 q 87 614 52 559 q 185 700 122 668 q 330 732 249 732 q 439 717 387 732 q 523 685 490 703 q 566 661 555 668 l 566 482 q 527 510 560 489 q 454 549 493 532 q 339 578 387 576 q 272 561 299 578 q 244 515 244 543 q 260 480 244 496 q 301 458 275 464 l 393 437 q 554 356 498 412 q 610 222 610 300 q 574 105 610 160 q 473 17 538 50 q 326 -16 408 -16 q 201 1 257 -16 q 111 35 144 17 q 71 60 78 53 l 74 239 q 107 215 79 233 q 168 180 135 196 q 319 138 249 138 q 392 157 367 138 q 418 207 418 176 q 340 279 418 260 l 250 300 q 101 372 151 323 q 52 497 52 421 z "},"t":{"ha":530,"x_min":35,"x_max":484,"o":"m 35 557 l 35 717 l 139 717 l 139 921 l 322 921 l 322 717 l 484 717 l 484 557 l 322 557 l 322 163 q 484 164 477 163 l 484 0 l 357 0 l 139 0 l 139 557 l 35 557 z "},"u":{"ha":818,"x_min":83,"x_max":722,"o":"m 83 0 l 83 717 l 267 717 l 267 163 l 403 163 l 484 163 q 518 162 503 163 q 539 163 533 161 l 539 717 l 722 717 l 722 0 l 539 0 l 334 0 l 83 0 z "},"v":{"ha":764,"x_min":11,"x_max":753,"o":"m 11 717 l 207 717 l 382 248 l 557 717 l 753 717 l 473 0 l 289 0 l 11 717 z "},"w":{"ha":1144,"x_min":11,"x_max":1133,"o":"m 11 717 l 195 717 l 336 267 l 486 717 l 657 717 l 807 265 l 950 717 l 1133 717 l 895 0 l 722 0 l 572 457 l 421 0 l 249 0 l 11 717 z "},"x":{"ha":758,"x_min":11,"x_max":747,"o":"m 11 0 l 134 165 l 275 359 l 12 717 l 231 717 l 379 507 l 528 717 l 746 717 l 621 546 l 484 359 l 623 170 l 747 0 l 529 0 l 379 212 l 229 0 l 11 0 z "},"y":{"ha":789,"x_min":31,"x_max":696,"o":"m 31 -129 l 513 -129 l 513 92 q 417 19 473 45 q 302 -8 361 -8 q 121 74 184 -8 q 57 285 57 155 l 57 717 l 240 717 l 240 318 q 279 217 240 258 q 376 175 318 175 q 473 217 433 175 q 513 318 513 260 l 513 717 l 696 717 l 696 -292 l 212 -292 l 31 -292 l 31 -129 z "},"z":{"ha":684,"x_min":43,"x_max":643,"o":"m 43 0 l 43 163 l 410 554 l 45 554 l 45 717 l 639 717 l 639 554 l 272 163 l 643 163 l 643 0 l 43 0 z "}," ":{"ha":407,"x_min":0,"x_max":0,"o":""}," ":{"ha":521,"x_min":0,"x_max":0,"o":""}," ":{"ha":1042,"x_min":0,"x_max":0,"o":""}," ":{"ha":521,"x_min":0,"x_max":0,"o":""}," ":{"ha":1042,"x_min":0,"x_max":0,"o":""}," ":{"ha":347,"x_min":0,"x_max":0,"o":""}," ":{"ha":260,"x_min":0,"x_max":0,"o":""}," ":{"ha":174,"x_min":0,"x_max":0,"o":""}," ":{"ha":174,"x_min":0,"x_max":0,"o":""}," ":{"ha":130,"x_min":0,"x_max":0,"o":""}," ":{"ha":208,"x_min":0,"x_max":0,"o":""}," ":{"ha":58,"x_min":0,"x_max":0,"o":""}," ":{"ha":208,"x_min":0,"x_max":0,"o":""}," ":{"ha":260,"x_min":0,"x_max":0,"o":""},"◼":{"ha":715,"x_min":0,"x_max":715,"o":"m 0 0 l 0 715 l 715 715 l 715 0 l 0 0 z "}}}
